<mxfile host="app.diagrams.net" agent="Mozilla/5.0 (Windows NT 10.0; Win64; x64) AppleWebKit/537.36 (KHTML, like Gecko) Chrome/136.0.0.0 Safari/537.36 Edg/136.0.0.0" version="27.0.8">
  <diagram name="Page-1" id="hGTaqOaSGqjHHWNTxNRC">
    <mxGraphModel dx="823" dy="478" grid="1" gridSize="10" guides="1" tooltips="1" connect="1" arrows="1" fold="1" page="1" pageScale="1" pageWidth="827" pageHeight="1169" math="0" shadow="0">
      <root>
        <mxCell id="0" />
        <mxCell id="1" parent="0" />
        <mxCell id="qDFJoR5MmWiv_csutCFi-41" value="" style="ellipse;whiteSpace=wrap;html=1;" vertex="1" parent="1">
          <mxGeometry x="310" y="300" width="80" height="100" as="geometry" />
        </mxCell>
        <mxCell id="qDFJoR5MmWiv_csutCFi-39" value="" style="rounded=0;whiteSpace=wrap;html=1;" vertex="1" parent="1">
          <mxGeometry x="230" y="315" width="240" height="205" as="geometry" />
        </mxCell>
        <mxCell id="qDFJoR5MmWiv_csutCFi-37" value="" style="rounded=0;whiteSpace=wrap;html=1;" vertex="1" parent="1">
          <mxGeometry x="230" y="315" width="240" height="145" as="geometry" />
        </mxCell>
        <mxCell id="qDFJoR5MmWiv_csutCFi-8" value="" style="endArrow=none;startArrow=baseDash;html=1;rounded=0;startFill=0;exitX=0.5;exitY=1;exitDx=0;exitDy=0;" edge="1" parent="1" source="qDFJoR5MmWiv_csutCFi-9" target="qDFJoR5MmWiv_csutCFi-13">
          <mxGeometry width="50" height="50" relative="1" as="geometry">
            <mxPoint x="600" y="140" as="sourcePoint" />
            <mxPoint x="600" y="280" as="targetPoint" />
          </mxGeometry>
        </mxCell>
        <mxCell id="qDFJoR5MmWiv_csutCFi-9" value="&lt;div&gt;Power Supply&lt;/div&gt;&lt;div&gt;12V&lt;/div&gt;" style="text;html=1;align=center;verticalAlign=middle;whiteSpace=wrap;rounded=0;" vertex="1" parent="1">
          <mxGeometry x="685" y="210" width="100" height="30" as="geometry" />
        </mxCell>
        <mxCell id="qDFJoR5MmWiv_csutCFi-11" value="GND" style="text;html=1;align=center;verticalAlign=middle;whiteSpace=wrap;rounded=0;" vertex="1" parent="1">
          <mxGeometry x="705" y="470" width="60" height="30" as="geometry" />
        </mxCell>
        <mxCell id="qDFJoR5MmWiv_csutCFi-12" value="" style="endArrow=none;startArrow=baseDash;html=1;rounded=0;startFill=0;exitX=0.5;exitY=0;exitDx=0;exitDy=0;" edge="1" parent="1" source="qDFJoR5MmWiv_csutCFi-11" target="qDFJoR5MmWiv_csutCFi-13">
          <mxGeometry width="50" height="50" relative="1" as="geometry">
            <mxPoint x="768" y="520" as="sourcePoint" />
            <mxPoint x="600" y="360" as="targetPoint" />
            <Array as="points" />
          </mxGeometry>
        </mxCell>
        <mxCell id="qDFJoR5MmWiv_csutCFi-26" style="edgeStyle=orthogonalEdgeStyle;rounded=0;orthogonalLoop=1;jettySize=auto;html=1;startArrow=none;startFill=0;exitX=0;exitY=0.75;exitDx=0;exitDy=0;entryX=1;entryY=0.5;entryDx=0;entryDy=0;" edge="1" parent="1" source="qDFJoR5MmWiv_csutCFi-13" target="qDFJoR5MmWiv_csutCFi-18">
          <mxGeometry relative="1" as="geometry" />
        </mxCell>
        <mxCell id="qDFJoR5MmWiv_csutCFi-13" value="&lt;div&gt;BDD&amp;nbsp;&lt;/div&gt;&lt;div&gt;Relay Board&amp;nbsp;&lt;/div&gt;&lt;div&gt;2CH 3.3V&lt;/div&gt;" style="rounded=0;whiteSpace=wrap;html=1;" vertex="1" parent="1">
          <mxGeometry x="670" y="315" width="130" height="80" as="geometry" />
        </mxCell>
        <mxCell id="qDFJoR5MmWiv_csutCFi-15" style="edgeStyle=orthogonalEdgeStyle;rounded=0;orthogonalLoop=1;jettySize=auto;html=1;entryX=0;entryY=0.25;entryDx=0;entryDy=0;" edge="1" parent="1" source="qDFJoR5MmWiv_csutCFi-14" target="qDFJoR5MmWiv_csutCFi-13">
          <mxGeometry relative="1" as="geometry">
            <Array as="points">
              <mxPoint x="540" y="185" />
              <mxPoint x="540" y="335" />
            </Array>
          </mxGeometry>
        </mxCell>
        <mxCell id="qDFJoR5MmWiv_csutCFi-14" value="ESP32" style="rounded=0;whiteSpace=wrap;html=1;" vertex="1" parent="1">
          <mxGeometry x="220" y="140" width="280" height="90" as="geometry" />
        </mxCell>
        <mxCell id="qDFJoR5MmWiv_csutCFi-25" style="edgeStyle=orthogonalEdgeStyle;rounded=0;orthogonalLoop=1;jettySize=auto;html=1;startArrow=none;startFill=0;exitX=0;exitY=0.5;exitDx=0;exitDy=0;" edge="1" parent="1" source="qDFJoR5MmWiv_csutCFi-23" target="qDFJoR5MmWiv_csutCFi-14">
          <mxGeometry relative="1" as="geometry">
            <Array as="points">
              <mxPoint x="90" y="375" />
              <mxPoint x="90" y="208" />
            </Array>
          </mxGeometry>
        </mxCell>
        <mxCell id="qDFJoR5MmWiv_csutCFi-28" style="edgeStyle=orthogonalEdgeStyle;rounded=0;orthogonalLoop=1;jettySize=auto;html=1;" edge="1" parent="1" source="qDFJoR5MmWiv_csutCFi-21" target="qDFJoR5MmWiv_csutCFi-14">
          <mxGeometry relative="1" as="geometry">
            <mxPoint x="104" y="465.0344827586207" as="sourcePoint" />
            <mxPoint x="160" y="160" as="targetPoint" />
            <Array as="points">
              <mxPoint x="40" y="420" />
              <mxPoint x="40" y="160" />
            </Array>
          </mxGeometry>
        </mxCell>
        <mxCell id="qDFJoR5MmWiv_csutCFi-29" value="12V" style="text;html=1;align=center;verticalAlign=middle;whiteSpace=wrap;rounded=0;" vertex="1" parent="1">
          <mxGeometry x="610" y="370" width="60" height="30" as="geometry" />
        </mxCell>
        <mxCell id="qDFJoR5MmWiv_csutCFi-31" value="3.3V Control Signal" style="text;html=1;align=center;verticalAlign=middle;whiteSpace=wrap;rounded=0;" vertex="1" parent="1">
          <mxGeometry x="540" y="310" width="130" height="30" as="geometry" />
        </mxCell>
        <mxCell id="qDFJoR5MmWiv_csutCFi-32" value="Analog Digital Converter" style="text;html=1;align=center;verticalAlign=middle;whiteSpace=wrap;rounded=0;strokeColor=default;" vertex="1" parent="1">
          <mxGeometry x="220" y="140" width="80" height="50" as="geometry" />
        </mxCell>
        <mxCell id="qDFJoR5MmWiv_csutCFi-33" value="9- or 16-Bit Resolution" style="text;html=1;align=center;verticalAlign=middle;whiteSpace=wrap;rounded=0;strokeColor=default;" vertex="1" parent="1">
          <mxGeometry x="220" y="190" width="80" height="40" as="geometry" />
        </mxCell>
        <mxCell id="qDFJoR5MmWiv_csutCFi-34" value="Temperature Control&amp;nbsp;&lt;div&gt;&lt;span style=&quot;background-color: transparent; color: light-dark(rgb(0, 0, 0), rgb(255, 255, 255));&quot;&gt;System&lt;/span&gt;&lt;/div&gt;" style="text;html=1;align=center;verticalAlign=middle;whiteSpace=wrap;rounded=0;strokeColor=default;" vertex="1" parent="1">
          <mxGeometry x="410" y="140" width="90" height="90" as="geometry" />
        </mxCell>
        <mxCell id="qDFJoR5MmWiv_csutCFi-18" value="Heating Element&amp;nbsp;&lt;span style=&quot;background-color: transparent; color: light-dark(rgb(0, 0, 0), rgb(255, 255, 255));&quot;&gt;12V 40W&lt;/span&gt;" style="rounded=0;whiteSpace=wrap;html=1;" vertex="1" parent="1">
          <mxGeometry x="360" y="360" width="210" height="30" as="geometry" />
        </mxCell>
        <mxCell id="qDFJoR5MmWiv_csutCFi-23" value="18B20 Digital Temperature Sensor" style="rounded=0;whiteSpace=wrap;html=1;strokeColor=default;" vertex="1" parent="1">
          <mxGeometry x="120" y="360" width="210" height="30" as="geometry" />
        </mxCell>
        <mxCell id="qDFJoR5MmWiv_csutCFi-21" value="XGZ Pressure Sensor 1MPA" style="rounded=0;whiteSpace=wrap;html=1;" vertex="1" parent="1">
          <mxGeometry x="120" y="410" width="210" height="30" as="geometry" />
        </mxCell>
        <mxCell id="qDFJoR5MmWiv_csutCFi-38" value="Water" style="text;html=1;align=center;verticalAlign=middle;whiteSpace=wrap;rounded=0;" vertex="1" parent="1">
          <mxGeometry x="320" y="310" width="60" height="30" as="geometry" />
        </mxCell>
        <mxCell id="qDFJoR5MmWiv_csutCFi-40" value="The Rest of the Inflation Test Setup" style="text;html=1;align=center;verticalAlign=middle;whiteSpace=wrap;rounded=0;" vertex="1" parent="1">
          <mxGeometry x="250" y="490" width="200" height="30" as="geometry" />
        </mxCell>
      </root>
    </mxGraphModel>
  </diagram>
</mxfile>
